<svg id="logo" xmlns="http://www.w3.org/2000/svg" xmlns:xlink="http://www.w3.org/1999/xlink">
    <symbol id="logo" viewBox="0 0 190 60">
        <defs>
            <style>
                .cls-1 {
                fill-rule: evenodd;
                fill: url(#linear-gradient);
                }
            </style>
            <linearGradient id="linear-gradient" x1="-68.94" y1="58.5" x2="-27.27" y2="16.83" gradientTransform="translate(104.25 62) rotate(180)" gradientUnits="userSpaceOnUse">
                <stop offset="0" stop-color="#336"/>
                <stop offset="1" stop-color="#936"/>
            </linearGradient>
        </defs>
        <path class="cls-1" d="M141.69,6.43a22.87,22.87,0,0,0,2.89,14.87,39.2,39.2,0,0,0,6.4,8.56c.11.11.23.2.38.35a49.5,49.5,0,0,1,6.87-12.06c-.39-.27-.75-.53-1.13-.77a50.54,50.54,0,0,1-7.82-5.79,25.12,25.12,0,0,1-5.86-8.79c-.09-.24-.21-.48-.34-.79A15.31,15.31,0,0,0,141.69,6.43ZM163.93,22a11.44,11.44,0,0,1,2.38,5.32c1.83-5.69,5.89-8.46,11.87-9.11-1.38-.9-2.56-1.73-3.79-2.48a14.06,14.06,0,0,0-5-1.95,9.42,9.42,0,0,0-8.15,2.6c-.57.49-1.17.94-1.64,1.33C161.21,19.26,162.66,20.52,163.93,22ZM146.34,60V50.77a29.8,29.8,0,0,1-8.34.78,8.91,8.91,0,0,1,1.06-.37l7.09-2a.73.73,0,0,0,.6-.73,70.9,70.9,0,0,1,4-16.53,1,1,0,0,0-.27-1.25,36.72,36.72,0,0,1-8.17-11.94A21.37,21.37,0,0,1,141.69,3c.38-1,.94-2,1.41-3l.22.06c.08.22.16.44.23.66a24.93,24.93,0,0,0,5.72,9.62,36,36,0,0,0,6.56,5.15l2.74,1.77c.76-.61,1.32-1,1.88-1.56a10.56,10.56,0,0,1,7.88-3,11.38,11.38,0,0,1,5.19,1.51c1.88,1.11,3.68,2.39,5.54,3.58a2.16,2.16,0,0,0,1,.36,27.88,27.88,0,0,1,8.45,1.56c.49.16,1,.4,1.46.61a1,1,0,0,1-.56,0,31.15,31.15,0,0,0-10.92-1,14.43,14.43,0,0,0-7.07,2.25c-3.29,2.31-4.5,5.63-4.86,9.4a33.1,33.1,0,0,1-.75,5.36c-1.18,4.43-4.16,7.6-8,10a34.42,34.42,0,0,1-9.91,4c-.44.11-.67.27-.7.75-.13,1.8-.32,3.57-.47,5.36-.09,1.18-.17,2.36-.25,3.53A.39.39,0,0,1,146.34,60Zm16.35-19.44a15.16,15.16,0,0,0,3-9.09,16.86,16.86,0,0,0-.86-6c-1.06-2.91-3.17-4.95-5.74-6.74-.6.82-1.21,1.59-1.76,2.41a51.82,51.82,0,0,0-4.95,9.37.76.76,0,0,0,.18,1,19.32,19.32,0,0,1,3.58,5,7.38,7.38,0,0,1-2.3,9.68,45.71,45.71,0,0,1-4.5,2.69,6.54,6.54,0,0,1-.6.28C154.2,47.5,159.26,45.22,162.69,40.54Zm-8.49,4.13a6.24,6.24,0,0,0,1.33-7.19,17.52,17.52,0,0,0-3.77-5.4,82,82,0,0,0-4.24,16.63A17.5,17.5,0,0,0,154.2,44.67Z" transform="translate(0 0.01)"/>
        <g id="text">
            <g id="fa">
                <path class="accent" d="M1.76,45.8a7,7,0,0,0-.42,2.38q0,3.18,3.51,3.18a7,7,0,0,0,1.8-.23,3.7,3.7,0,0,0,1.42-.69,1.31,1.31,0,0,0,.57-1,.62.62,0,0,0-.33-.55,1.79,1.79,0,0,0-1-.2h-1q-.39,0-.51-.48l-.17-.72c0-.14,0-.2.18-.2h4.39v1.41H9.6a1.23,1.23,0,0,1,.22.41,1.52,1.52,0,0,1,.08.43,2.16,2.16,0,0,1-.37,1.19,3.65,3.65,0,0,1-1,1,5.22,5.22,0,0,1-1.61.72,7.67,7.67,0,0,1-2.07.27C1.62,52.7,0,51.18,0,48.16a9,9,0,0,1,.14-1.47A6,6,0,0,1,.55,45.3Zm8.35,2.84V47.23h1.45v1.41Z" transform="translate(0 0.01)"/>
                <path class="accent" d="M11.26,48.64V47.23h2.53v1.41Z" transform="translate(0 0.01)"/>
                <path class="accent" d="M17.12,42.87a8.8,8.8,0,0,1,.38,2.52,3.39,3.39,0,0,1-.78,2.41,3,3,0,0,1-2.3.84H13.5V47.23h.92a1.77,1.77,0,0,0,1.33-.43,1.91,1.91,0,0,0,.42-1.39,9.76,9.76,0,0,0-.29-2.23Zm-2.5-2.35,1.13-1.13,1.15,1.14-1.14,1.13Z" transform="translate(0 0.01)"/>
                <path class="accent" d="M19.1,37.82h1.32V48.64H19.1Z" transform="translate(0 0.01)"/>
                <path class="accent" d="M24.17,47.62A5.42,5.42,0,0,0,24,46.37,6.84,6.84,0,0,0,23.56,45l1.27-.45.48,1.5a2.39,2.39,0,0,0,.32.66,1.25,1.25,0,0,0,.46.4,1.39,1.39,0,0,0,.63.14H27v1.41H26.8a2.77,2.77,0,0,1-.88-.11,1,1,0,0,1-.48-.33,4.41,4.41,0,0,1-1.37,3,6.82,6.82,0,0,1-3.53,1.59l-.47-1.2C22.79,51.05,24.16,49.73,24.17,47.62Z" transform="translate(0 0.01)"/>
                <path class="accent" d="M26.71,48.64V47.23h2.53v1.41Z" transform="translate(0 0.01)"/>
                <path class="accent" d="M28.59,51.16l1.09-1.09,1.1,1.09-1.1,1.12Zm4.61-8.29a8.8,8.8,0,0,1,.38,2.52,3.2,3.2,0,0,1-.84,2.48,3.84,3.84,0,0,1-2.64.77H28.94V47.23H30.1a5.31,5.31,0,0,0,1-.07,1.41,1.41,0,0,0,.65-.27,1.11,1.11,0,0,0,.39-.55,3,3,0,0,0,.11-.93A9.76,9.76,0,0,0,32,43.18Zm-2,8.29,1.09-1.09,1.1,1.09-1.1,1.12Z" transform="translate(0 0.01)"/>
                <path class="accent" d="M35.18,37.82H36.5V48.64H35.18Z" transform="translate(0 0.01)"/>
                <path class="accent" d="M48.28,44.43,49.6,44a9.86,9.86,0,0,1,.73,3.57A4.48,4.48,0,0,1,49,51a5.16,5.16,0,0,1-3.6,1.18q-4.87,0-4.87-4.5a8.71,8.71,0,0,1,.7-3.34l1.21.49a8,8,0,0,0-.57,2.82q0,3.19,3.58,3.19c2.33,0,3.5-1.16,3.51-3.5A6.65,6.65,0,0,0,48.28,44.43Zm-4.11-1.11,1.13-1.14,1.15,1.14-1.14,1.14Z" transform="translate(0 0.01)"/>
                <path class="accent" d="M51.93,37.82h1.32V48.64H51.93Z" transform="translate(0 0.01)"/>
                <path class="accent" d="M57,47.62a5.42,5.42,0,0,0-.16-1.25A6.84,6.84,0,0,0,56.39,45l1.27-.45.48,1.5a2.39,2.39,0,0,0,.32.66,1.25,1.25,0,0,0,.46.4,1.39,1.39,0,0,0,.63.14h.3v1.41h-.21a2.77,2.77,0,0,1-.88-.11,1,1,0,0,1-.48-.33,4.41,4.41,0,0,1-1.37,3,6.82,6.82,0,0,1-3.53,1.59l-.47-1.2C55.62,51.05,57,49.73,57,47.62Z" transform="translate(0 0.01)"/>
                <path class="accent" d="M59.54,48.64V47.23H61a6.88,6.88,0,0,0,2.27-.31,9.74,9.74,0,0,0,1-.39c.37-.16.68-.32.93-.45l1.36-.7.61-.32L66.86,45l-.47-.2-.74-.3c-.61-.25-1.08-.43-1.38-.54a2.26,2.26,0,0,0-.71-.16,1.61,1.61,0,0,0-.85.25,2.59,2.59,0,0,0-.72.64l-.21.27-1.18-.59.12-.2A3.87,3.87,0,0,1,62,42.85a3,3,0,0,1,1.61-.47,6.16,6.16,0,0,1,2.37.75A18.21,18.21,0,0,0,68,44a5.34,5.34,0,0,0,1.47.3l0,1.33a4.44,4.44,0,0,0-1.11.33c-.44.18-1.06.49-1.88.92a25,25,0,0,1-2.82,1.34,8.16,8.16,0,0,1-2.73.41H59.54Zm4,2.52L64.64,50l1.15,1.14L64.65,52.3Z" transform="translate(0 0.01)"/>
                <path class="accent" d="M74.06,48.64h-.19a2.94,2.94,0,0,1-2.19-.75A3.36,3.36,0,0,1,71,45.48V37.82h1.32v7.67a1.88,1.88,0,0,0,.39,1.35,1.62,1.62,0,0,0,1.21.4h.19Z" transform="translate(0 0.01)"/>
                <path class="accent" d="M78.64,52.87a5.4,5.4,0,0,1-3.12-4.23H73.75V47.23h1.66a15,15,0,0,1,.14-1.52,8.15,8.15,0,0,1,.29-1.32,4.1,4.1,0,0,1,.48-1,2.14,2.14,0,0,1,.74-.66,2.05,2.05,0,0,1,1-.25,1.86,1.86,0,0,1,1.5.66,2.64,2.64,0,0,1,.55,1.75,3.84,3.84,0,0,1-.47,1.8,4.25,4.25,0,0,1-1.26,1.43,3,3,0,0,1-1.66.58,3.59,3.59,0,0,0,1.63,2.5,4.6,4.6,0,0,1,.8-2.89,2.79,2.79,0,0,1,2.35-1h.26v1.41h-.27q-2,0-2,2.58c0,.27,0,.5,0,.72ZM76.7,47.25a2.16,2.16,0,0,0,1.57-.73,2.39,2.39,0,0,0,.65-1.68,1.19,1.19,0,0,0-.23-.78.74.74,0,0,0-.59-.27c-.44,0-.77.28-1,.85A8.56,8.56,0,0,0,76.7,47.25Z" transform="translate(0 0.01)"/>
                <path class="accent" d="M84,47.52a2.9,2.9,0,0,1-2.19,1.13h-.24V47.24h.2a1.39,1.39,0,0,0,.63-.15,1.65,1.65,0,0,0,.52-.44,5.72,5.72,0,0,0,.39-.56c.1-.18.21-.41.33-.66.69-1.51,1.58-2.27,2.66-2.27a2.5,2.5,0,0,1,2,.9A3.26,3.26,0,0,1,89,46.24a2.81,2.81,0,0,1-.59,1.9,2.17,2.17,0,0,1-1.71.67,3.19,3.19,0,0,1-1.4-.32A5.14,5.14,0,0,1,84,47.52Zm.66-1.27a2.82,2.82,0,0,0,2,1.21,1,1,0,0,0,1.11-1.09,2,2,0,0,0-.38-1.26,1.26,1.26,0,0,0-1-.48C85.55,44.62,85,45.16,84.61,46.25Z" transform="translate(0 0.01)"/>
                <path class="accent" d="M92.67,45.43c0-1.54,1.32-2.71,4-3.53l0-.35,1.24-.26.64,4.6a1.62,1.62,0,0,0,.46,1,1.44,1.44,0,0,0,1,.35h.23v1.41h-.27a2.28,2.28,0,0,1-2.52-1.85,3.15,3.15,0,0,1-2.11.82,3,3,0,0,1-1.87-.55A2,2,0,0,1,92.67,45.43Zm4.16-2.27a8.2,8.2,0,0,0-2.11,1.05,1.44,1.44,0,0,0-.7,1.13.85.85,0,0,0,.31.72,1.43,1.43,0,0,0,.89.25,2.19,2.19,0,0,0,1.27-.39,1.2,1.2,0,0,0,.57-1,3.29,3.29,0,0,0,0-.45Z" transform="translate(0 0.01)"/>
                <path class="accent" d="M105.82,46.84a5.06,5.06,0,0,0,2.36.39h.34v1.41h-.34a5.93,5.93,0,0,1-3.42-1,7.12,7.12,0,0,1-4.06,1h-.83V47.23h.85a6.22,6.22,0,0,0,2.88-.39,7.7,7.7,0,0,1-1.71-1.29,1.86,1.86,0,0,1-.57-1.27,1.14,1.14,0,0,1,.3-.78,2,2,0,0,1,.81-.54,5.29,5.29,0,0,1,1.09-.3,8.09,8.09,0,0,1,1.23-.09,6.64,6.64,0,0,1,1.18.1A6.11,6.11,0,0,1,107,43a2.08,2.08,0,0,1,.82.53,1.12,1.12,0,0,1,.31.78,1.88,1.88,0,0,1-.61,1.23A7.11,7.11,0,0,1,105.82,46.84Zm-1.09-.77a14.89,14.89,0,0,0,1.38-.87c.42-.3.63-.55.63-.74,0-.34-.67-.53-2-.53s-2,.17-2,.53c0,.2.21.45.64.77A12.82,12.82,0,0,0,104.73,46.07Zm3.64,2.57V47.23h.71v1.41Z" transform="translate(0 0.01)"/>
                <path class="accent" d="M111.22,47.52A2.9,2.9,0,0,1,109,48.65h-.24V47.24h.2a1.39,1.39,0,0,0,.63-.15,1.65,1.65,0,0,0,.52-.44,5.72,5.72,0,0,0,.39-.56c.1-.18.21-.41.33-.66.69-1.51,1.58-2.27,2.66-2.27a2.5,2.5,0,0,1,2,.9,3.26,3.26,0,0,1,.77,2.18,2.81,2.81,0,0,1-.59,1.9,2.17,2.17,0,0,1-1.71.67,3.19,3.19,0,0,1-1.4-.32A4.84,4.84,0,0,1,111.22,47.52Zm.66-1.27a2.82,2.82,0,0,0,2,1.21A1,1,0,0,0,115,46.37a2,2,0,0,0-.38-1.26,1.26,1.26,0,0,0-1-.48C112.82,44.62,112.27,45.16,111.88,46.25Z" transform="translate(0 0.01)"/>
                <path class="accent" d="M121,48.64h-.19a2.94,2.94,0,0,1-2.19-.75,3.36,3.36,0,0,1-.73-2.41V37.82h1.32v7.67a1.88,1.88,0,0,0,.39,1.35,1.62,1.62,0,0,0,1.21.4H121Z" transform="translate(0 0.01)"/>
                <path class="accent" d="M120.69,48.64V47.23h1.42a6.88,6.88,0,0,0,2.27-.31,9.74,9.74,0,0,0,1-.39c.37-.16.68-.32.93-.45l1.36-.7.61-.32L128,45l-.47-.2-.74-.3c-.61-.25-1.08-.43-1.38-.54a2.26,2.26,0,0,0-.71-.16,1.61,1.61,0,0,0-.85.25,2.59,2.59,0,0,0-.72.64l-.21.27-1.18-.59.12-.2a3.87,3.87,0,0,1,1.25-1.29,3,3,0,0,1,1.61-.47,6.16,6.16,0,0,1,2.37.75,18.21,18.21,0,0,0,2,.87,5.34,5.34,0,0,0,1.47.3l0,1.33a4.44,4.44,0,0,0-1.11.33c-.44.18-1.06.49-1.88.92a25,25,0,0,1-2.82,1.34,8.16,8.16,0,0,1-2.73.41h-1.34Zm4,2.52L125.78,50l1.15,1.14-1.14,1.13Z" transform="translate(0 0.01)"/>
            </g>
            <g id="en">
                <path class="primary" d="M7.56,14.74c3,5.15,6,10.3,9,15.47H13.7L5.81,16.49l-3.4,3.4V30.21H0V7.12H2.41V18.64L13.93,7.12h1.22Z" transform="translate(0 0.01)"/>
                <path class="primary" d="M36.86,21.87c0,6-1.85,8.7-8.09,8.7s-8.12-2.74-8.12-8.7c0-2.87.5-5.08,2-6.71s4-1.8,6.14-1.8,4.59.22,6.11,1.8S36.86,19,36.86,21.87Zm-2.18,0c0-4.49-.76-7.62-5.91-7.62s-5.94,3.14-5.94,7.62.69,7.76,5.94,7.76S34.68,26.42,34.68,21.91Z" transform="translate(0 0.01)"/>
                <path class="primary" d="M57,21.87c0,6-1.85,8.7-8.09,8.7s-8.12-2.74-8.12-8.7c0-2.87.5-5.08,2-6.71s4-1.8,6.14-1.8,4.59.22,6.11,1.8S57,19,57,21.87Zm-2.17,0c0-4.49-.76-7.62-5.91-7.62S43,17.43,43,21.91s.69,7.76,5.94,7.76S54.85,26.42,54.85,21.91Z" transform="translate(0 0.01)"/>
                <path class="primary" d="M74.78,29c-1.25,1.19-3.17,1.58-5.91,1.58-6.07,0-7.72-3.2-7.72-8.7s2-8.53,7.72-8.53c2.77,0,4.72.44,6,1.72l-.46.8c-1.58-1.39-3.07-1.55-5.21-1.55-5,0-5.74,3.14-5.74,7.59s.69,7.72,5.61,7.72a7.91,7.91,0,0,0,5.25-1.39Z" transform="translate(0 0.01)"/>
                <path class="primary" d="M93.16,19.86V30.21H91.05V19.86c0-3-.73-5.58-4.19-5.58a5.2,5.2,0,0,0-5.28,5V30.21H79.47V7.14h2.11v9.18a8.93,8.93,0,0,1,6.27-3C92,13.36,93.16,15.8,93.16,19.86Z" transform="translate(0 0.01)"/>
                <path class="primary" d="M111.84,19.37V30.21h-2.11V28.46a8,8,0,0,1-5.54,2.11c-4,0-6.4-1.52-6.4-5.15s2.71-4.94,6.07-4.94h5.88V19.36c0-3.47-2-5.08-6-5.08a7.35,7.35,0,0,0-4.85,1.81l-.43-.66c1.29-1.29,3.43-2.07,6.24-2.07C109.36,13.36,111.84,15.26,111.84,19.37Zm-2.12,6v-4h-5c-3.33,0-4.82,1.62-4.82,3.9,0,3,2,4.35,5.25,4.35C107.74,29.66,109.72,28.28,109.72,25.37Z" transform="translate(0 0.01)"/>
                <path class="primary" d="M130.51,19.37V30.21H128.4V28.46a8,8,0,0,1-5.54,2.11c-4,0-6.4-1.52-6.4-5.15s2.71-4.94,6.07-4.94h5.87V19.36c0-3.47-2-5.08-6-5.08a7.35,7.35,0,0,0-4.85,1.81l-.43-.66c1.29-1.29,3.43-2.07,6.24-2.07C128,13.36,130.51,15.26,130.51,19.37Zm-2.11,6v-4h-5c-3.33,0-4.82,1.62-4.82,3.9,0,3,2,4.35,5.25,4.35C126.42,29.66,128.4,28.28,128.4,25.37Z" transform="translate(0 0.01)"/>
            </g>
        </g>
    </symbol>
    <symbol id="bird" viewBox="0 0 52 60">
        <path d="M8.34,60V50.78A29.8,29.8,0,0,1,0,51.56a8.91,8.91,0,0,1,1.06-.37l7.09-2a.73.73,0,0,0,.6-.73,70.9,70.9,0,0,1,4-16.53,1,1,0,0,0-.27-1.25A36.72,36.72,0,0,1,4.27,18.78,21.37,21.37,0,0,1,3.69,3c.38-1,.94-2,1.41-3l.22.06c.08.22.16.44.23.66a24.93,24.93,0,0,0,5.72,9.62,36,36,0,0,0,6.56,5.15l2.74,1.77c.76-.61,1.32-1,1.88-1.56a10.56,10.56,0,0,1,7.88-3,11.38,11.38,0,0,1,5.19,1.51c1.88,1.11,3.68,2.39,5.54,3.58a2.16,2.16,0,0,0,1,.36,27.88,27.88,0,0,1,8.45,1.56c.49.16,1,.4,1.46.61a1,1,0,0,1-.56,0,31.15,31.15,0,0,0-10.92-1,14.43,14.43,0,0,0-7.07,2.25c-3.29,2.31-4.5,5.63-4.86,9.4a33.1,33.1,0,0,1-.75,5.36c-1.18,4.43-4.16,7.6-8,10a34.42,34.42,0,0,1-9.91,4c-.44.11-.67.27-.7.75-.13,1.8-.32,3.57-.47,5.36-.09,1.18-.17,2.36-.25,3.53A.39.39,0,0,1,8.34,60Z"/>
    </symbol>
</svg>